<svg xmlns="http://www.w3.org/2000/svg" xmlns:xlink="http://www.w3.org/1999/xlink" width="200" height="200" viewBox="0 0 150 150" xmlns:v="https://vecta.io/nano"><style><![CDATA[.B{fill:rgb(93.72549%,81.568627%,63.921569%)}.C{fill:rgb(86.666667%,60.392157%,36.862745%)}.D{fill:rgb(91.764706%,72.156863%,51.372549%)}.E{fill:rgb(82.745098%,55.294118%,32.941176%)}.F{fill:rgb(84.705882%,63.921569%,45.098039%)}.G{fill:rgb(65.882353%,14.901961%,14.901961%)}.H{fill:rgb(29.803922%,68.235294%,89.803922%)}.I{fill:rgb(85.490196%,85.490196%,85.490196%)}.J{fill:rgb(80.784314%,80%,79.215686%)}.K{fill:rgb(60%,38.039216%,13.72549%)}.L{fill:rgb(55.686275%,33.333333%,10.980392%)}.M{fill:rgb(88.627451%,74.901961%,56.862745%)}]]></style><path d="M96.98 72.359H83.758a3.65 3.65 0 0 1-3.641-3.641l-1.82-30.84S75.352 12.336 90.625 8.977c0 0 6.211-12.082 26.102-8.211.27.055.531.152.797.23 4.582 1.422 8.84 3.938 12.383 7.461 10.828 10.777 8.652 23.512 8.922 25.094 0 8.848.141-.984-1.816 35.168 0 2.004-1.641 3.641-3.641 3.641h-14.07" fill="rgb(49.803922%,45.098039%,41.176471%)"/><path d="M99.281 72.359v-4.328c-8.176-3.613-13.273-11.344-13.703-19.816l-.012-.27a22.85 22.85 0 0 1-.02-.902l.012-13.012c-.137-7.27.988-22.512 12.547-25.055 0 0 3.805-7.402 14.996-8.762-8.527-.937-18.531 1.594-22.477 8.762C80.32 11.242 77.84 23.793 78.086 34.285l.012.426c.059 1.945.199 3.168.199 3.168l1.82 30.84a3.65 3.65 0 0 0 3.641 3.641zm0 0" fill="rgb(44.705882%,39.607843%,35.294118%)"/><path d="M66.871 139.82l3.914-34.957c1.371-10.559.809-14.613 4.215-18.746a15.83 15.83 0 0 0-3.543-3.078l-.109-.023c-3.684-2.207-6.785-2.301-13.629-4.184l-7-3.352v-8.359c-5.863 2.594-12.605 2.504-18.25.047l-.031 8.348-6.969 3.316c-6.801 1.871-9.937 1.973-13.629 4.184l-.109.023a10.35 10.35 0 0 0-.961.676C5.496 87.5 5.41 92.418 4.957 96.055L2.863 114.77.004 141.469C-.043 144.867 2.043 150 8.379 150L75 149.996c-5.676-.098-8.625-4.426-8.129-10.176zm0 0" class="C"/><path d="M7.547 141.457c-.051-2.953.566-2.922 5.195-50.852.484-3.965 1.684-7.203 5.145-9.887-.523.168-3.172.574-6.047 2.297l-.109.023c-.332.203-.66.438-.961.676-5.273 3.785-5.359 8.703-5.813 12.34L0 141.469C-.043 144.867 2.043 150 8.379 150h7.543c-5.434 0-8.469-4.09-8.375-8.543zm32.438-58.801V68.98c-2.719-.18-5.262-.832-7.516-1.812l-.031 8.348zm0 0" class="E"/><path d="M149.938 139.82l-5.504-48.168c-.773-3.742-3.031-6.699-6.164-8.613l-.109-.023c-1.336-.801-2.82-1.43-4.418-1.891l-15.367-3.824c-.5-.227-.844-.973-.844-1.82v-7.41a22.93 22.93 0 0 1-18.25-.039v7.449c0 .852-.348 1.594-.848 1.82-12.996 3.461-15.887 3.383-19.781 5.715l-.109.023c-4.301 2.629-5.961 6.188-6.535 10.887l-5.137 45.895c-.516 5.953 2.641 10.18 8.32 10.18h66.43c6.336 0 8.422-5.133 8.375-8.531v-.012a16.37 16.37 0 0 0-.059-1.637zm0 0" class="D"/><path d="M74.359 141.469v-.012a16.37 16.37 0 0 1 .059-1.637l5.137-48.613c.547-4.5 2.082-8.059 6.406-10.801-1.27.383-4.164.723-7.309 2.609l-.109.023c-4.301 2.629-5.961 6.188-6.535 10.887l-5.137 45.895c-.512 5.953 2.641 10.18 8.32 10.18h7.543c-6.336 0-8.422-5.133-8.375-8.531zm0 0" class="F"/><path d="M147.137 114.766l-2.703-23.113c-.777-3.766-3.062-6.715-6.164-8.613l-.109-.027c-1.336-.797-2.82-1.426-4.418-1.887l-15.367-3.824c-.5-.227-.844-.973-.844-1.82v-7.449c-5.84 2.578-12.555 2.516-18.25 0v7.449c0 .848-.348 1.594-.848 1.82-12.996 3.461-15.887 3.379-19.781 5.711l-.109.027c-4.262 2.602-5.961 6.195-6.535 10.887l-2.332 20.84 14.699 1.543c.785.082 1.363.758 1.324 1.543L84.086 150h48.73l-1.695-32.023a1.61 1.61 0 0 1 1.438-1.684zm0 0" fill="rgb(84.705882%,23.921569%,23.921569%)"/><path d="M69.676 114.766l7.309.766 2.57-24.324c.547-4.5 2.082-8.059 6.406-10.801-1.828.488-4.488.918-7.309 2.609l-.109.023c-3.145 1.922-5.395 4.883-6.164 8.613-.473 2.289-.383 2.789-2.703 23.113zm0 0" class="G"/><path d="M71.402 83.039l-.109-.023c-3.691-2.215-6.844-2.316-13.582-4.172l.008-.012-7-3.352-.051.078c0-.008 0-.02-.004-.027l-9.125 8.594-9.102-8.609-6.969 3.316c-6.801 1.871-9.937 1.973-13.629 4.184l-.109.023C7.43 85.668 5.77 89.227 5.195 93.926L2.863 114.77l14.418 1.516c.91.094 1.586.883 1.539 1.797L17.219 150h48.727l-1.691-32.02c-.043-.855.59-1.598 1.441-1.687l3.855-.402c2.824-23.445 2-25.551 5.422-29.738-.75-.922-2.754-2.613-3.57-3.113zm0 0" fill="rgb(43.921569%,73.333333%,93.72549%)"/><path d="M12.742 90.605c.484-3.965 1.684-7.203 5.145-9.887-.687.195-3.262.629-6.047 2.297l-.109.023c-1.02.625-2.539 1.848-3.57 3.113-3.656 4.469-2.66 7.996-5.297 28.617l7.457.785c-.023.234.301-2.977 2.422-24.949zm0 0" class="H"/><path d="M124.531 78.832l-6.156-1.531c-.5-.227-.844-.973-.844-1.82v-8.355c-5.887 2.602-12.609 2.492-18.25 0v8.355c0 .848-.348 1.594-.848 1.82l-6.246 1.555c7.508 12.625 24.84 12.633 32.344-.023zm0 0" class="D"/><g fill="rgb(29.803922%,28.235294%,27.45098%)"><use xlink:href="#B"/><use xlink:href="#B"/></g><path d="M44.391.145C27.754-1.508 12.93 11.5 12.93 28.605v7.867h5.707v-7.867c0-14.707 11.168-27.012 25.754-28.461zm0 0" fill="rgb(24.705882%,23.137255%,22.352941%)"/><path d="M71.566 39.031c0 3.297-3.191 5.969-7.125 5.969V33.063c3.934 0 7.125 2.672 7.125 5.969zm-60.059 0c0 3.297 3.191 5.969 7.129 5.969V33.063c-3.937 0-7.129 2.672-7.129 5.969zm0 0" class="C"/><path d="M64.441 39.637V45c3.934 0 7.125-2.672 7.125-5.969 0-.965-.273-1.875-.758-2.68-1.176 1.949-3.586 3.285-6.367 3.285zM12.27 36.352C9.902 40.277 13.297 45 18.637 45v-5.363c-2.785 0-5.195-1.336-6.367-3.285zm0 0" class="E"/><path d="M59.164 24.77c-.082-2.285-1.969-3.539-3.785-3.258l-1.195.18c-9.027 1.281-17.613 1.199-26.484-.18-1.805-.281-3.703.953-3.785 3.258-.125 3.398-1.539 5.926-3.691 7.5-.895.656-1.559.883-1.586.898 0 14.824-.18 15.816.617 19.172.73 3.082 2.094 5.98 4.004 8.504 10.656 14.094 32.969 11.344 39.582-5.375 2.191-5.531 1.602-9.73 1.602-22.301-.086-.066-5.043-1.82-5.277-8.398zm0 0" fill="rgb(92.941176%,68.235294%,41.960784%)"/><path d="M27.035 56.125c-1.617-5.766-.723-9.285-.973-20.211 0-1.125.563-2.082 1.254-2.57 2.719-1.934 3.953-5.098 4.027-8.473a3.54 3.54 0 0 1 1.344-2.723c-1.043-.105-2.082-.227-3.125-.367l-1.863-.27c-1.801-.277-3.703.949-3.785 3.258-.125 3.395-1.535 5.926-3.691 7.5-.895.656-1.559.883-1.586.898l.02 14.879c.465 10.465 7.93 18.973 17.25 21.195-.434-.324-7.055-6.633-8.871-13.117zm0 0" class="C"/><path d="M43.801 100.574V81.992l-2.262 2.133-2.266-2.141v18.59a2.27 2.27 0 0 0 2.266 2.266c1.25-.004 2.262-1.016 2.262-2.266zm0 0" class="H"/><path d="M50.719 75.48l-9.18 8.645 4.953 4.992c.453.457 1.078.695 1.719.656a2.24 2.24 0 0 0 1.625-.852l7.883-10.09zm0 0" class="I"/><path d="M54.242 77.168l-3.523-1.687-9.18 8.645 3.277 3.305zm-7.074 12.414c.41.184.867.238 1.309.16zm0 0" class="J"/><path d="M32.438 75.516l9.102 8.609-4.957 4.992c-.449.457-1.074.695-1.715.656a2.23 2.23 0 0 1-1.625-.852l-7.883-10.09zm0 0" class="I"/><path d="M35.121 84.09l3.137 3.34 3.281-3.305-9.102-8.609-3.73 1.75zm0 0" class="J"/><path d="M106.863 80.094V68.98c-2.707-.187-5.273-.836-7.582-1.855-.23 6.602.598 9.52-.848 10.176l-6.246 1.555c1.555 2.613 3.66 4.824 6.137 6.453l6.484-2.387s2.055-1.02 2.055-2.828zm0 0" class="F"/><path d="M129.047 39.551a2.42 2.42 0 0 1 2.305 2.414v1.73c-.004 3.074.207 6.063-.973 9.973-1.187 3.945-3.43 7.566-6.797 10.563-14.207 12.652-37.035 3.102-38.004-16.016-.004-.086 0 .023-.012-.27a22.85 22.85 0 0 1-.02-.902V34.266c0-1.348.949-2.5 2.27-2.777 2.336-.496 6.117-1.84 9.547-5.488a2.08 2.08 0 0 1 1.586-.656c.602.02 1.164.293 1.547.758 3.324 4.031 12.309 12.691 28.551 13.449zm0 0" fill="rgb(96.862745%,81.176471%,61.176471%)"/><path d="M95.461 57.199c-3.023-6.109-2.32-10.441-2.367-18.937v-8.84c-2.016 1.18-3.898 1.773-5.277 2.066-1.32.277-2.27 1.43-2.27 2.777v12.777c0 .379.02.969.023 1.004a42.69 42.69 0 0 0 .051.824c1.059 13.441 13.453 22.938 26.602 20.758-7.23-1.195-13.477-5.812-16.762-12.43zm0 0" class="D"/><g fill="rgb(71.764706%,17.254902%,17.254902%)"><path d="M128.945 79.93l-4.414-1.098c-3.383 5.703-9.363 9.496-16.18 9.496 0 0 20.684 20.688 20.594-8.398zm0 0"/><path d="M87.855 79.93l4.418-1.098c3.379 5.703 9.359 9.496 16.176 9.496 0 0-20.684 20.688-20.594-8.398zm0 0"/></g><g class="G"><path d="M98.609 85.434c-3.648 1.941-7.855 2.867-10.547-.734 2.141 21.875 20.387 3.629 20.387 3.629-3.598 0-6.965-1.059-9.84-2.895zm0 0"/><path d="M118.191 85.434c3.648 1.941 7.855 2.867 10.547-.734-2.141 21.875-20.387 3.629-20.387 3.629 3.602 0 6.965-1.059 9.84-2.895zm0 0"/></g><path d="M90.648 81.234c-8.676-10.937-25.434-9.75-32.641 1.906-4.215 6.816-2.625 13.023-2.973 14.922h39.93c-.129-3.902.949-10.195-4.316-16.828zm0 0" class="K"/><path d="M60.449 89.016l.313-1.156c2.223-7.383 8.66-13.059 16.676-14.035-7.934-.969-15.422 2.832-19.43 9.316-4.215 6.816-2.625 13.02-2.973 14.922h4.879c.004-4.164-.156-6.109.535-9.047zm0 0" class="L"/><path d="M100.906 114.773c-1.754-5.441-4.027-8.84-5.762-10.609-1 .984-2.387 1.688-3.965 1.938 2.895 4.176 2.262 8.344 2.117 10.824-.066 1.133.949 2.02 2.059 1.789l3.699-.766a2.47 2.47 0 0 0 1.852-3.176zm0 0" class="K"/><path d="M97.09 100.719c0 3.199-3.094 5.789-6.91 5.789V94.934c3.816 0 6.91 2.59 6.91 5.785zm0 0" class="B"/><path d="M49.09 114.773c1.754-5.441 4.027-8.84 5.762-10.609 1 .984 2.391 1.688 3.969 1.938-2.898 4.176-2.262 8.344-2.117 10.824a1.72 1.72 0 0 1-2.062 1.789l-3.695-.766c-1.437-.297-2.305-1.777-1.855-3.176zm0 0" class="L"/><path d="M52.906 100.719c0 3.199 3.094 5.789 6.91 5.789V94.934c-3.816 0-6.91 2.59-6.91 5.785zm0 0" class="B"/><path d="M90.18 101.551v4.957c5.121 0 8.398-4.473 6.246-8.266-1.109 1.957-3.488 3.309-6.246 3.309zM53.57 98.242c-2.152 3.801 1.141 8.266 6.246 8.266v-4.957c-2.758 0-5.137-1.352-6.246-3.309zm0 0" class="M"/><path d="M100.672 150l-1.574-14.07c-.359-2.945-1.398-5.422-4.332-7.215l-.074-.02c-2.57-1.539-4.434-1.473-13.113-3.785-.957-.434-.402-2.297-.559-7.023a15.2 15.2 0 0 1-12.098-.027c-.156 4.617.402 6.613-.562 7.051-8.66 2.309-10.539 2.246-13.113 3.785l-.07.02c-2.07 1.266-3.57 3.219-4.086 5.707-.309 1.488-.227 1.605-1.82 15.578zm0 0" class="B"/><path d="M49.27 150h51.402l-1.574-14.07c-.359-2.941-1.402-5.426-4.332-7.215l-.074-.02c-2.547-1.523-4.602-1.527-11.48-3.379v1.82c0 1.305-.309 2.547-.852 3.641-.113.23-.238.453-.375.676l-.102.16c-.145.223-.297.434-.449.621a6.03 6.03 0 0 1-.242.293l-.035.043-.148.16-.016.02-.027.027a7.71 7.71 0 0 1-.176.18l-.059.059-.238.223-.066.059c-.051.047-.105.09-.152.133l-.027.02-.09.078-.164.125-.105.078-.16.117-.078.059-.027.016-.172.113-.023.02-.082.047c-.047.031-.094.063-.145.09l-.051.031-.02.012-.062.035c-.098.055-.191.109-.289.156-.012.008-.027.016-.039.02l-.062.031-.191.098-.105.047-.199.086-.117.047-.191.074-.125.047c-.062.023-.129.047-.195.066l-.121.039-.055.016-.16.047-.082.023-.023.008-.328.078-.047.012-.148.031-.395.066c-.266.039-.535.063-.805.078h-.098l-.051.004-.141.004h-.199l-.141-.004-.148-.004a8.91 8.91 0 0 1-.805-.078c-.133-.02-.266-.043-.395-.066l-.145-.031-.051-.012a7.87 7.87 0 0 1-.324-.078l-.027-.008-.078-.023-.16-.047c-.02-.004-.039-.008-.059-.016l-.023-.008-.098-.031-.195-.066-.125-.047-.191-.074-.117-.047-.199-.086-.105-.047c-.062-.031-.129-.062-.191-.098l-.102-.051a4.04 4.04 0 0 1-.285-.156l-.066-.035-.02-.012-.051-.031-.145-.09-.105-.066a8.2 8.2 0 0 1-3.41-4.523c-.504-1.66-.305-2.844-.352-4.211l-1.742.434c-5.469 1.492-7.355 1.5-9.797 2.965l-.07.016c-2.047 1.25-3.57 3.207-4.09 5.707-.305 1.484-.242 1.773-1.816 15.578zm0 0" fill="rgb(97.647059%,72.54902%,21.960784%)"/><path d="M54.914 141.129c.629-5.676.188-10.437 4.961-13.504l.07-.02c.531-.332 1.102-.617 1.695-.867.109-.086.215-.164.32-.234-2.418.688-4.422.82-6.715 2.191l-.07.02c-2.086 1.273-3.586 3.238-4.098 5.77-.305 1.488-.234 1.695-1.809 15.516h4.699zM62.473 150l.211-6.551c.039-1.25-.941-2.297-2.191-2.336-1.25-.047-2.293.941-2.336 2.191L57.941 150zm29.582 0l-.215-6.695c-.039-1.25-1.074-2.238-2.336-2.191-1.246.039-2.227 1.086-2.187 2.336l.211 6.551zm0 0" fill="rgb(91.764706%,63.529412%,14.117647%)"/><path d="M73.121 129.676c.039-.059 1.773-.57 1.852-2.766v-7.781c-2.207-.012-4.25-.473-6.051-1.27-.156 4.621.402 6.613-.562 7.051l-1.57.391c.043 1.363-.152 2.547.348 4.211a8.49 8.49 0 0 0 .883 1.953zm0 0" class="M"/><path d="M73.953 89.895c-3.406 5.668-10.641 4.797-13.207 4.277a.77.77 0 0 0-.645.16.78.78 0 0 0-.285.602c0 9.223-.281 11.25.645 14.313a15.2 15.2 0 0 0 14.355 10.785c8.379.105 15.363-6.637 15.363-15.176v-9.922a.78.78 0 0 0-.281-.602.77.77 0 0 0-.645-.16c-2.57.52-9.801 1.391-13.207-4.277-.477-.789-1.617-.789-2.094 0zm0 0" fill="rgb(98.823529%,89.019608%,73.333333%)"/><path d="M67.586 107.465c-.395-2.285-.141-3.168-.223-13.172-2.672.512-5.277.148-6.617-.121a.77.77 0 0 0-.645.16.78.78 0 0 0-.285.602c0 9.363-.273 11.266.645 14.313 2.289 7.582 10.238 12.391 18.313 10.313-5.734-1.473-10.16-6.18-11.187-12.094zm0 0" class="B"/><defs ><path id="B" d="M12.93 36.473v-7.867c0-23.156 26.18-36.555 44.965-23.469 14.73 10.285 11.926 25.414 12.25 31.336"/></defs></svg>