<svg xmlns="http://www.w3.org/2000/svg" width="200" height="200" viewBox="0 0 150 150"  xmlns:v="https://vecta.io/nano"><style><![CDATA[.B{fill:rgb(91.764706%,91.764706%,88.235294%)}.C{fill:rgb(87.843137%,85.882353%,82.745098%)}.D{fill:rgb(29.803922%,29.803922%,29.803922%)}.E{fill:rgb(80%,64.313725%,51.372549%)}]]></style><path d="M142.73 119.258c-5.238-17.734-31.527-15.766-42.875-20.859s-9.578-22.18-11.016-25.152H61.156c-1.434 2.973.336 20.063-11.012 25.152s-37.641 3.125-42.879 20.859c-2.887 9.781-2.75 12.773-3.547 23.609 0 0 36.074 7.133 70.465 7.133s72.098-7.133 72.098-7.133c-.801-10.84-.664-13.828-3.551-23.609zm0 0" class="B"/><path d="M142.73 119.258c-5.238-17.734-31.527-15.766-42.875-20.859s-9.578-22.18-11.016-25.152H74.18s-.336 23.965 11.012 29.059 37.641 3.125 42.875 20.859c2.75 9.316 2.758 12.473 3.441 22.113 9.035-1.324 14.77-2.41 14.77-2.41-.797-10.84-.66-13.828-3.547-23.609zm0 0" class="C"/><g fill="rgb(77.647059%,77.254902%,68.627451%)"><path d="M98.352 97.609l-15.543 13.477-2.34-14.375zm-46.953.148l15.773 13.328 1.867-14.375zm0 0"/><path d="M80.883 96.711H69.039l-.895 2.902 13.656.082zm0 0"/></g><path d="M69.039 96.711l-.895 2.902.516.34zm12.762 2.984L80.5 96.816l.527 3.328zm0 0" fill="rgb(66.666667%,65.882353%,56.078431%)"/><path d="M81.551 149.895l.273-3.754-2.855-37.816h-7.527l-3.336 37.82.273 3.789 5.805.066zm0 0" class="D"/><path d="M71.469 108.492l7.5-.172.152 2.113zm0 0" fill="rgb(22.745098%,22.745098%,21.960784%)"/><path d="M66.102 97.961l17.715-.008-1.008 6.043-4 4.496h-7.34l-4.355-4.496zm0 0" class="D"/><path d="M69.039 96.711l-12.078-6.57-5.562 7.617 14.898 10.734 1.27-7.012zm11.43 0l12.078-6.57s1.836 2.117 5.805 7.469l-15.141 10.883-1.27-7.012zm0 0" class="B"/><path d="M92.547 90.141l-12.078 6.57.832 2.711c1.113 1.223 2.402 2.215 3.891 2.883 1.316.59 2.836 1.09 4.5 1.527l8.656-6.223-5.801-7.469zm0 0" class="C"/><path d="M105.652 65.75c2.969.531 6.172-3.461 7.156-8.922s-.633-10.32-3.602-10.852-6.172 3.457-7.152 8.918.629 10.32 3.598 10.855zm0 0" class="E"/><g fill="rgb(85.882353%,70.588235%,56.862745%)"><path d="M37.109 56.832c.984 5.461 4.188 9.457 7.156 8.922s4.578-5.395 3.598-10.855-4.184-9.453-7.156-8.918-4.578 5.395-3.598 10.852zm0 0"/><path d="M105.137 22.422H44.82S27.914 91.289 74.969 97.957c47.074-6.668 30.168-75.535 30.168-75.535zm0 0"/></g><g class="E"><path d="M74.969 97.957c47.074-6.668 30.168-75.535 30.168-75.535h-7.059c1.934 28.766 4.609 44.047-6.488 60.707-8.793 13.203-16.621 14.828-16.621 14.828zm0 0"/><path d="M90.586 26.117L42.508 39.332c4.066 1.629 12.012 4.633 29.004 4.559 9.457-.043 30.258-2.93 34.855-13.996zm0 0"/></g><path d="M104.973 15.984S101.387 3.152 77.715.293C58.813-1.992 43.684 9.938 22.184 7.25c-.102 11.918 2.922 25.527 14.758 30.684-.117 5.07.227 11.684 5.102 17.035 0 0-.43-8.711.449-15.648 0 0 10.727 2.629 23.035 2.656 13.086.023 30.531-2.125 40.844-12.082 0 0 1.547 9.473 1.547 25.074 0 0 3.527-3.723 4.117-9.406 1.34-12.887 2.59-30.168-7.062-29.578zm0 0" fill="rgb(31.764706%,31.764706%,31.764706%)"/></svg>