<svg xmlns="http://www.w3.org/2000/svg" viewBox="0 0 319.335 319.335"  xmlns:v="https://vecta.io/nano"><path d="M303.858 253.887c-11.151-37.754-67.121-33.566-91.279-44.408s-20.386-47.219-23.449-53.548h-58.932c-3.058 6.329.714 42.711-23.449 53.548-24.157 10.842-80.133 6.655-91.279 44.408-6.149 20.824-5.857 27.193-7.554 50.26 0 0 76.8 15.187 150.014 15.187s153.488-15.187 153.488-15.187c-1.703-23.073-1.411-29.435-7.56-50.26z" fill="#eaeae1"/><path d="M303.858 253.887c-11.151-37.754-67.121-33.566-91.279-44.408s-20.386-47.219-23.449-53.548h-31.206s-.719 51.024 23.438 61.866 80.133 6.655 91.279 44.408c5.857 19.83 5.868 26.552 7.324 47.073 19.234-2.816 31.442-5.126 31.442-5.126-1.692-23.078-1.4-29.44-7.549-50.265z" fill="#e0dbd3"/><g fill="#c6c5af"><path d="M209.381 207.798l-33.088 28.694-4.986-30.605zm-99.962.315l33.583 28.379 3.979-30.605z"/><path d="M172.19 205.887h-25.209l-1.911 6.183 29.076.169z"/></g><path d="M146.981 205.887l-1.911 6.183 1.102.719zm27.165 6.352l-2.771-6.127 1.124 7.082z" fill="#aaa88f"/><path d="M173.617 319.109l.579-7.987-6.082-80.51H152.09l-7.099 80.515.585 8.066 12.354.141 15.687-.225z" fill="#4c4c4c"/><path d="M152.152 230.966l15.963-.359.326 4.496z" fill="#3a3a38"/><path d="M140.725 208.551l37.715-.022-2.147 12.871-8.516 9.566h-15.625l-9.274-9.566z" fill="#4c4c4c"/><path d="M146.981 205.887l-25.72-13.984s-3.389 4.817-11.843 16.21l31.723 22.853 2.704-14.923 3.136-10.156zm24.326 0l25.72-13.984s3.901 4.502 12.354 15.895l-32.234 23.168-2.704-14.923-3.136-10.156z" fill="#eaeae1"/><path d="M197.027 191.903l-25.72 13.984 1.776 5.772c2.372 2.602 5.109 4.716 8.279 6.138 2.805 1.259 6.037 2.316 9.578 3.254l18.436-13.248c-8.448-11.398-12.349-15.9-12.349-15.9z" fill="#e0dbd3"/><ellipse transform="matrix(-.177 .9842 -.9842 -.177 386.2379 -85.1184)" cx="228.707" cy="118.927" rx="21.386" ry="11.629" fill="#cca483"/><g fill="#dbb491"><ellipse transform="matrix(-.9842 .177 -.177 -.9842 200.5228 219.9815)" cx="90.45" cy="118.935" rx="11.629" ry="21.386"/><path d="M223.826 47.734H95.418S59.429 194.348 159.605 208.54c100.216-14.192 64.221-160.806 64.221-160.806z"/></g><g fill="#cca483"><path d="M159.605 208.54c100.216-14.192 64.221-160.806 64.221-160.806h-15.024c4.114 61.242 9.808 93.774-13.815 129.24-18.717 28.104-35.382 31.566-35.382 31.566z"/><path d="M192.851 55.603L90.494 83.734c8.661 3.468 25.574 9.864 61.748 9.707 20.133-.09 64.412-6.239 74.203-29.795l-33.594-8.043z"/></g><path d="M223.478 34.031S215.845 6.709 165.451.622c-40.244-4.862-72.45 20.532-118.224 14.81-.219 25.377 6.222 54.351 31.419 65.328-.247 10.792.478 24.866 10.859 36.264 0 0-.916-18.548.956-33.313 0 0 22.837 5.593 49.04 5.649 27.856.056 64.997-4.519 86.951-25.72 0 0 3.294 20.167 3.294 53.385 0 0 7.509-7.931 8.768-20.026 2.849-27.434 5.513-64.227-15.036-62.968z" fill="#515151"/></svg>