<svg xmlns="http://www.w3.org/2000/svg" width="200" height="200" viewBox="0 0 150 150"  xmlns:v="https://vecta.io/nano"><style><![CDATA[.B{fill:rgb(90.196078%,68.627451%,47.058824%)}.C{fill:rgb(35.294118%,25.490196%,27.45098%)}.D{fill:rgb(41.176471%,29.411765%,29.411765%)}.E{fill:rgb(82.352941%,60.784314%,43.137255%)}.F{fill:rgb(94.117647%,75.294118%,52.941176%)}.G{fill:rgb(78.039216%,81.176471%,88.627451%)}.H{fill:rgb(82.352941%,23.529412%,41.176471%)}.I{fill:rgb(83.529412%,86.27451%,92.941176%)}]]></style><path d="M108.871 66.531v1.699c0 2.078.336 4.145.992 6.121l3.848 11.535h7.258V59.273h-4.84a7.26 7.26 0 0 0-7.258 7.258zm0 0" class="C"/><path d="M141.996 71.559l-4.094 14.328-19.355-16.934a4.84 4.84 0 0 1-4.836-4.84 7.26 7.26 0 0 1 7.258-7.258h16.934c2.672 0 4.84 2.168 4.84 4.84v4.547a19.29 19.29 0 0 1-.746 5.316zm0 0" class="D"/><path d="M118.547 93.148h14.516v10.707h-14.516zm0 0" class="B"/><path d="M118.547 97.59c2.246.91 4.691 1.426 7.258 1.426s5.016-.516 7.258-1.426v-4.445h-14.516zm0 0" class="E"/><path d="M144.734 102.348l-11.672-3.332-7.258 4.816-7.258-4.816-11.668 3.332a7.26 7.26 0 0 0-5.266 6.98v17.688a2.42 2.42 0 0 0 2.418 2.418h43.551a2.42 2.42 0 0 0 2.418-2.418v-17.687a7.26 7.26 0 0 0-5.266-6.98zm0 0" class="I"/><path d="M128.227 129.434h-4.84l1.211-25.582h2.418zm0 0" fill="rgb(68.627451%,72.54902%,82.352941%)"/><path d="M125.805 95.563c-8.016 0-14.516-6.496-14.516-14.516v-2.832a4.84 4.84 0 0 1 1.418-3.422l4.387-4.387c.93-.93 2.199-1.465 3.512-1.422 7.734.242 14.582 1.898 18.324 5.555.914.895 1.395 2.145 1.395 3.426v3.082a14.52 14.52 0 0 1-14.52 14.516zm0 0" class="F"/><path d="M118.547 78.813c0-2.789 2.344-5.008 5.129-4.832 4.887.313 12.133 1.129 16.578 3.27-.145-1.023-.582-1.984-1.324-2.711-3.742-3.656-10.59-5.312-18.324-5.555-1.312-.043-2.582.492-3.512 1.422l-4.387 4.387a4.84 4.84 0 0 0-1.418 3.422v2.832c0 6.621 4.438 12.195 10.496 13.941-2.016-2.488-3.238-5.648-3.238-9.102zm0 0" class="B"/><path d="M140.324 116.535c0-1.922.762-3.77 2.125-5.129l6.227-6.23c.832 1.191 1.324 2.625 1.324 4.152v17.688c0 1.336-1.082 2.418-2.418 2.422h-7.258zm0 0" class="G"/><path d="M127.016 108.691h-2.418a1.21 1.21 0 0 1-1.211-1.211v-3.629h4.84v3.629a1.21 1.21 0 0 1-1.211 1.211zm0 0" fill="rgb(58.431373%,61.176471%,70.980392%)"/><g class="G"><path d="M125.805 103.832l-4.098 3.129c-.707.543-1.73.324-2.156-.453l-3.68-6.719 1.48-2.258a.97.97 0 0 1 1.469-.18zm0 0"/><path d="M125.805 103.832l4.102 3.133c.707.539 1.727.32 2.156-.457l3.676-6.719-1.48-2.258c-.328-.5-1.027-.586-1.465-.18zm0 0"/></g><path d="M43.309 94.555c-2.07-5.477-3.707-14.895-4.062-19.797-.676-9.332-7.703-16.937-17.211-16.937S5.5 65.426 4.828 74.758C4.473 79.66 2.832 89.078.766 94.555c-.457 1.207.07 2.539 1.258 3.078 2.219 1.004 6.941 2.969 12.637 3.738h14.75c5.672-.77 10.43-2.738 12.637-3.738a2.41 2.41 0 0 0 1.262-3.078zm0 0" class="C"/><path d="M42.047 97.633a2.41 2.41 0 0 0 1.262-3.078c-2.07-5.477-3.707-14.895-4.062-19.797-.676-9.332-7.707-16.937-17.211-16.937h-.07c-7.293.031-9.871 9.977-3.594 13.688.379.223.621.332.621.332l5.5 29.531h4.918c5.672-.77 10.43-2.738 12.637-3.738zm0 0" class="D"/><path d="M39.535 106.227l-7.828-3.914a4.84 4.84 0 0 1-2.676-4.328v-7.258H14.516v7.258a4.84 4.84 0 0 1-2.676 4.328l-7.828 3.914A7.26 7.26 0 0 0 0 112.719v14.297a2.42 2.42 0 0 0 2.418 2.418h38.711a2.42 2.42 0 0 0 2.418-2.418v-14.297c0-2.75-1.551-5.262-4.012-6.492zm0 0" class="B"/><path d="M21.773 100.402c2.605 0 5.102-.535 7.387-1.492-.059-.305-.129-.609-.129-.926v-7.258H14.516v7.258c0 .32-.07.625-.129.93a19.17 19.17 0 0 0 7.387 1.488zm0 0" class="E"/><path d="M39.535 106.227l-5.578-2.789c-2.586 3.996-7.07 6.645-12.184 6.645s-9.598-2.648-12.184-6.645l-5.578 2.789A7.26 7.26 0 0 0 0 112.719v14.297a2.42 2.42 0 0 0 2.418 2.418h38.711a2.42 2.42 0 0 0 2.418-2.418v-14.297c0-2.75-1.551-5.262-4.012-6.492zm0 0" class="I"/><path d="M21.773 95.563c-7.379 0-13.473-5.508-14.395-12.637-.133-1.031.363-2.043 1.293-2.512 1.113-.562 2.73-1.512 4.281-2.895 1.727-1.539 2.738-3.164 3.313-4.355.492-1.027 1.625-1.605 2.727-1.324 8.52 2.172 14.316 6.602 16.422 8.414.566.484.891 1.199.832 1.945a14.52 14.52 0 0 1-14.473 13.363zm0 0" class="F"/><path d="M35.414 80.254c-2.105-1.812-7.902-6.242-16.422-8.414-1.105-.281-2.234.297-2.727 1.324-.434.902-1.152 2.055-2.211 3.227-.332.383-.684.758-1.102 1.129-1.551 1.383-3.168 2.332-4.281 2.895-.93.469-1.426 1.48-1.293 2.512.828 6.406 5.836 11.5 12.195 12.473-2.898-1.969-5.059-4.68-5.059-9.512v-3.449c.551-.406 1.105-.812 1.66-1.309a19.23 19.23 0 0 0 3.461-4.082c6.516 2.035 10.934 5.422 12.609 6.863a168.47 168.47 0 0 1 2.926 2.699 14.37 14.37 0 0 0 1.074-4.41c.059-.746-.27-1.461-.832-1.945zm0 0" class="B"/><path d="M1.477 108.355C.543 109.594 0 111.109 0 112.719v14.297a2.42 2.42 0 0 0 2.418 2.418h7.258v-12.187a4.84 4.84 0 0 0-1.816-3.781zm0 0" class="G"/><path d="M109.758 102.926l-20.242-7.363L75 100.402l-14.516-4.84-20.242 7.363c-3.824 1.391-6.371 5.023-6.371 9.094v14.996a2.42 2.42 0 0 0 2.418 2.418h77.422a2.42 2.42 0 0 0 2.418-2.418V112.02c0-4.07-2.547-7.703-6.371-9.094zm0 0" fill="rgb(100%,31.372549%,49.019608%)"/><path d="M72.465 105.242l-2.305 24.191h9.68l-2.305-24.191zm0 0" fill="rgb(43.921569%,45.490196%,52.941176%)"/><path d="M77.539 108.566h-5.078c-.937 0-1.695-.758-1.695-1.695v-6.469h8.469v6.469c0 .938-.758 1.695-1.695 1.695zm0 0" fill="rgb(35.686275%,36.470588%,43.137255%)"/><path d="M113.523 105.426c1.637 1.754 2.605 4.09 2.605 6.594v14.996a2.42 2.42 0 0 1-2.418 2.418h-12.098v-8.086c0-2.566 1.02-5.027 2.836-6.844zm0 0" class="H"/><path d="M101.613 45.672v-20.27c0-2.672-2.168-4.836-4.84-4.84H67.742a19.36 19.36 0 0 0-19.355 19.355v5.754a24.13 24.13 0 0 0 1.242 7.648l.805 2.418c.246.738.371 1.516.371 2.293v1.242h48.391v-1.242c-.004-.777.125-1.555.371-2.293l.805-2.418a24.13 24.13 0 0 0 1.242-7.648zm0 0" class="C"/><path d="M60.484 30.395a9.83 9.83 0 0 0 9.828 9.828h1.359l.66 19.051h26.863v-1.242c-.004-.777.125-1.555.371-2.293l.805-2.418a24.13 24.13 0 0 0 1.242-7.648v-20.27c0-2.672-2.168-4.836-4.84-4.84H70.313a9.83 9.83 0 0 0-9.828 9.832zm0 0" class="D"/><path d="M60.484 78.629h29.031v21.773H60.484zm0 0" class="B"/><path d="M60.484 86.809c4.273 2.477 9.223 3.918 14.516 3.918s10.242-1.441 14.516-3.918v-8.18H60.484zm0 0" class="E"/><g class="H"><path d="M75 100.402l-7.715 7.719c-.496.492-1.18.75-1.875.699a2.43 2.43 0 0 1-1.766-.949l-8-10.543 2.094-4.41c.293-.621.84-1.086 1.5-1.281a2.42 2.42 0 0 1 1.953.258zm0 0"/><path d="M75 100.402l7.715 7.719c.496.492 1.18.75 1.875.699a2.43 2.43 0 0 0 1.766-.949l8-10.543-2.094-4.41c-.293-.621-.84-1.086-1.5-1.281a2.42 2.42 0 0 0-1.953.258zm0 0"/></g><path d="M75 85.887c-13.363 0-24.195-10.832-24.195-24.195v-2.832a4.84 4.84 0 0 1 1.418-3.422l2.004-2.004c.91-.906 1.418-2.137 1.418-3.422v-5.801c0-1.121.754-2.094 1.844-2.352 5.723-1.352 23.527-4.551 35.645 4.359.785.578 1.223 1.531 1.223 2.508v1.285c0 1.281.508 2.516 1.414 3.422l2.008 2.004c.906.906 1.414 2.137 1.414 3.422v2.836C99.195 75.055 88.363 85.887 75 85.887zm0 0" class="F"/><path d="M93.133 46.219c-8.523-6.266-19.844-6.539-27.809-5.68-3.363.363-6.141.922-7.836 1.32-1.09.258-1.844 1.234-1.844 2.352v5.801c0 1.285-.508 2.516-1.418 3.422l-2.004 2.004a4.84 4.84 0 0 0-1.418 3.422v2.836c0 12.367 9.293 22.551 21.273 24-4.176-4.348-6.754-10.242-6.754-16.742V51.27a4.84 4.84 0 0 1 4.254-4.809c5.805-.727 16.441-1.164 24.777 3.551v-1.285c0-.977-.437-1.93-1.223-2.508zm0 0" class="B"/><path d="M36.477 105.426c-1.637 1.754-2.605 4.09-2.605 6.594v14.996a2.42 2.42 0 0 0 2.418 2.418h12.098v-8.086c0-2.566-1.02-5.027-2.836-6.844zm0 0" class="H"/></svg>