<svg xmlns="http://www.w3.org/2000/svg" viewBox="0 0 215 215" width="286.667" height="286.667"  xmlns:v="https://vecta.io/nano"><defs><clipPath id="A"><path d="M0 0h215v215H0z"/></clipPath></defs><g clip-path="url(#A)"><path d="M154.597 104.936v2.437a28.14 28.14 0 0 0 1.408 8.78l5.465 16.546h10.306V94.526h-6.873c-5.691.001-10.305 4.661-10.306 10.41z" fill="#5a4146"/><path d="M201.634 112.148l-5.813 20.552-27.484-24.29c-3.794-.003-6.867-3.11-6.867-6.942.001-5.749 4.615-10.409 10.306-10.411h24.046c3.795 0 6.873 3.11 6.873 6.943v6.522c.001 2.579-.356 5.146-1.059 7.625l-.002.001z" fill="#694b4b"/><path d="M168.337 143.115h20.612v15.358h-20.612v-15.358z" fill="#e6af78"/><path d="M168.337 149.486c3.189 1.306 6.661 2.046 10.306 2.046s7.123-.74 10.306-2.046v-6.375h-20.612v6.375z" fill="#d29b6e"/><path d="M205.522 156.311l-16.574-4.779-10.306 6.908-10.307-6.908-16.568 4.779c-4.426 1.277-7.477 5.363-7.478 10.012v25.371c.002 1.915 1.538 3.467 3.434 3.468h61.842c1.896-.001 3.432-1.553 3.434-3.468v-25.37c-.001-4.649-3.052-8.735-7.478-10.012l.001-.001z" fill="#d5dced"/><path d="M182.082 195.162h-6.872l1.719-36.694h3.434l1.719 36.694z" fill="#afb9d2"/><path d="M178.643 146.579c-11.383 0-20.613-9.318-20.613-20.821v-4.063a6.98 6.98 0 0 1 2.014-4.908l6.229-6.292c1.321-1.334 3.123-2.102 4.988-2.04 10.982.347 20.706 2.722 26.02 7.968 1.297 1.284 1.981 3.076 1.981 4.914v4.421c-.004 11.5-9.234 20.821-20.619 20.821h0z" fill="#f0c087"/><path d="M168.337 122.553c0-4 3.328-7.183 7.283-6.931 6.939.449 17.229 1.62 23.541 4.691-.206-1.468-.827-2.846-1.88-3.889-5.314-5.244-15.038-7.619-26.02-7.968-1.864-.061-3.667.706-4.988 2.04l-6.229 6.293a6.98 6.98 0 0 0-2.014 4.908v4.062c0 9.497 6.302 17.492 14.905 19.997-2.863-3.569-4.598-8.102-4.598-13.056v-10.147z" fill="#e6af78"/><path d="M199.26 176.66a10.44 10.44 0 0 1 3.018-7.356l8.842-8.937c1.181 1.709 1.88 3.766 1.88 5.956v25.371c0 1.916-1.536 3.468-3.434 3.474H199.26V176.66z" fill="#c7cfe2"/><path d="M180.363 165.409h-3.434c-.456.001-.894-.182-1.216-.508a1.74 1.74 0 0 1-.503-1.229v-5.205h6.872v5.205a1.74 1.74 0 0 1-.503 1.229c-.322.326-.76.509-1.216.508h0z" fill="#959cb5"/><g fill="#c7cfe2"><path d="M178.643 158.44l-5.819 4.488c-1.004.779-2.457.464-3.062-.65l-5.225-9.638 2.101-3.238a1.38 1.38 0 0 1 .984-.618 1.37 1.37 0 0 1 1.102.36l9.919 9.296z"/><path d="M178.643 158.44l5.825 4.493c1.004.774 2.452.459 3.061-.655l5.22-9.638-2.101-3.238c-.466-.717-1.459-.841-2.081-.258l-9.924 9.296z"/></g><path d="M61.499 145.133c-2.94-7.856-5.264-21.365-5.768-28.396-.96-13.386-10.939-24.294-24.44-24.294S7.81 103.351 6.856 116.737c-.504 7.031-2.835 20.54-5.768 28.396-.649 1.731.099 3.642 1.786 4.415 3.151 1.44 9.856 4.259 17.945 5.362h20.945c8.054-1.105 14.81-3.928 17.944-5.362 1.668-.752 2.457-2.696 1.792-4.415h-.001z" fill="#5a4146"/><path d="M59.707 149.548c1.668-.752 2.457-2.696 1.792-4.415-2.94-7.856-5.264-21.365-5.768-28.396-.96-13.386-10.944-24.294-24.44-24.294h-.099c-10.356.044-14.017 14.311-5.104 19.634.538.319.882.476.882.476l7.81 42.358h6.984c8.054-1.104 14.81-3.927 17.944-5.362l-.001-.001z" fill="#694b4b"/><path d="M56.14 161.875l-11.116-5.614c-2.328-1.176-3.799-3.579-3.8-6.208v-10.411H20.613v10.411c-.001 2.629-1.472 5.032-3.8 6.208l-11.116 5.614C2.206 163.639 0 167.244 0 171.187v20.507c.002 1.915 1.538 3.467 3.434 3.468h54.969c1.896-.001 3.432-1.553 3.434-3.468v-20.507c0-3.945-2.203-7.548-5.697-9.312h0z" fill="#e6af78"/><path d="M30.918 153.52a26.88 26.88 0 0 0 10.489-2.14c-.084-.438-.183-.874-.183-1.329v-10.41H20.613v10.41c0 .459-.1.897-.183 1.334a26.98 26.98 0 0 0 10.489 2.135h-.001z" fill="#d29b6e"/><path d="M56.14 161.875l-7.921-4.001c-3.672 5.732-10.039 9.532-17.301 9.532s-13.63-3.798-17.302-9.532l-7.92 4.001C2.205 163.639 0 167.244 0 171.187v20.507c.002 1.915 1.538 3.467 3.434 3.468h54.969c1.896-.001 3.432-1.553 3.434-3.468v-20.507c0-3.945-2.203-7.548-5.697-9.312h0z" fill="#d5dced"/><path d="M30.918 146.579c-10.479 0-19.132-7.901-20.441-18.126-.189-1.479.515-2.931 1.836-3.603 1.58-.806 3.876-2.169 6.079-4.153 2.452-2.207 3.888-4.538 4.704-6.246.699-1.474 2.308-2.303 3.873-1.9 12.098 3.116 20.328 9.47 23.319 12.069.804.694 1.265 1.72 1.181 2.79-.856 10.824-9.802 19.167-20.551 19.167v.002z" fill="#f0c087"/><path d="M50.288 124.62c-2.989-2.599-11.221-8.953-23.319-12.069-1.569-.403-3.173.426-3.873 1.9-.616 1.293-1.636 2.947-3.139 4.628a17.12 17.12 0 0 1-1.565 1.62 28.85 28.85 0 0 1-6.079 4.152c-1.321.673-2.025 2.123-1.836 3.603 1.176 9.189 8.287 16.495 17.317 17.891-4.115-2.824-7.184-6.713-7.184-13.644v-4.947c.782-.582 1.569-1.164 2.357-1.877 1.9-1.711 3.555-3.682 4.915-5.855 9.252 2.919 15.526 7.777 17.904 9.844l4.155 3.871a20.77 20.77 0 0 0 1.525-6.326c.084-1.07-.383-2.095-1.181-2.789l.003-.002z" fill="#e6af78"/><path d="M2.097 164.927C.771 166.704 0 168.878 0 171.187v20.507c.002 1.915 1.538 3.467 3.434 3.468H13.74v-17.48a6.97 6.97 0 0 0-2.579-5.424l-9.064-7.331z" fill="#c7cfe2"/><path d="M155.856 157.14l-28.743-10.561-20.613 6.941-20.613-6.943-28.743 10.562c-5.43 1.995-9.047 7.204-9.047 13.044v21.51c.001 1.914 1.538 3.466 3.433 3.468h109.94c1.895-.002 3.432-1.554 3.433-3.468v-21.509c0-5.838-3.617-11.049-9.047-13.044h0z" fill="#ff507d"/><path d="M102.9 160.462l-3.273 34.699h13.746l-3.273-34.699h-7.2z" fill="#707487"/><path d="M110.105 165.23h-7.21c-1.331 0-2.407-1.087-2.407-2.431v-9.279h12.026v9.279c0 1.345-1.077 2.431-2.407 2.431h-.002z" fill="#5b5d6e"/><path d="M161.203 160.726a13.93 13.93 0 0 1 3.699 9.458v21.51c-.002 1.915-1.538 3.467-3.434 3.468h-17.179v-11.598c0-3.681 1.448-7.211 4.027-9.817l12.887-13.021z" fill="#d23c69"/><path d="M144.29 75.017V45.942c0-3.832-3.078-6.936-6.872-6.942H96.194c-15.178.004-27.481 12.431-27.484 27.762v8.253c-.001 3.729.594 7.434 1.763 10.971l1.143 3.468c.35 1.058.527 2.174.527 3.289v1.781h68.715v-1.781c-.005-1.115.178-2.231.527-3.289l1.143-3.468c1.169-3.537 1.765-7.242 1.764-10.971l-.002.002z" fill="#5a4146"/><path d="M85.887 53.104c.002 7.785 6.249 14.095 13.956 14.097h1.93l.937 27.326h38.145v-1.781c-.005-1.115.178-2.231.527-3.289l1.143-3.469c1.169-3.536 1.765-7.241 1.764-10.97V45.944c0-3.833-3.079-6.937-6.873-6.943H99.844c-3.702.001-7.252 1.487-9.869 4.132s-4.087 6.232-4.086 9.971h-.002z" fill="#694b4b"/><path d="M85.887 122.289h41.224v31.231H85.887v-31.231z" fill="#e6af78"/><path d="M85.887 134.022c6.068 3.553 13.097 5.62 20.613 5.62s14.544-2.067 20.613-5.62v-11.733H85.887v11.733z" fill="#d29b6e"/><g fill="#d23c69"><path d="M106.5 153.52l-10.955 11.072c-.705.705-1.676 1.075-2.663 1.002a3.44 3.44 0 0 1-2.508-1.361l-11.36-15.122 2.974-6.326a3.43 3.43 0 0 1 2.13-1.837c.935-.28 1.943-.145 2.773.37L106.5 153.52z"/><path d="M106.5 153.52l10.955 11.072c.705.705 1.676 1.075 2.663 1.002a3.44 3.44 0 0 0 2.508-1.361l11.36-15.122-2.974-6.326a3.43 3.43 0 0 0-2.13-1.837c-.935-.28-1.943-.145-2.773.37L106.5 153.52z"/></g><path d="M106.5 132.7c-18.975 0-34.357-15.537-34.357-34.705v-4.062c0-1.841.725-3.606 2.014-4.908l2.845-2.875a6.95 6.95 0 0 0 2.014-4.908v-8.321c0-1.608 1.071-3.003 2.618-3.373 8.127-1.94 33.409-6.528 50.616 6.252 1.115.829 1.737 2.196 1.737 3.597v1.844c0 1.837.721 3.608 2.008 4.908l2.851 2.875a6.97 6.97 0 0 1 2.008 4.908V98c.003 19.163-15.379 34.7-34.354 34.7z" fill="#f0c087"/><path d="M132.249 75.802c-12.103-8.988-28.179-9.38-39.489-8.148-4.775.521-8.72 1.323-11.127 1.894-1.548.37-2.619 1.77-2.619 3.373v8.321c0 1.843-.721 3.609-2.013 4.908l-2.846 2.875c-1.289 1.302-2.013 3.067-2.013 4.908v4.068c0 17.739 13.196 32.347 30.207 34.425-5.93-6.237-9.59-14.691-9.59-24.014V83.047c-.004-3.512 2.589-6.473 6.04-6.898 8.243-1.043 23.347-1.67 35.184 5.093v-1.843c0-1.401-.621-2.768-1.737-3.597h.003z" fill="#e6af78"/><path d="M51.797 160.726a13.93 13.93 0 0 0-3.699 9.458v21.51c.002 1.915 1.538 3.467 3.434 3.468h17.179v-11.598c0-3.681-1.448-7.211-4.027-9.817l-12.887-13.021z" fill="#d23c69"/></g></svg>