<svg xmlns="http://www.w3.org/2000/svg" width="200" height="200" viewBox="0 0 150 150"  xmlns:v="https://vecta.io/nano"><style><![CDATA[.B{fill:rgb(100%,83.137255%,13.333333%)}.C{fill:rgb(54.509804%,36.862745%,23.529412%)}.D{fill:rgb(45.882353%,29.803922%,16.078431%)}.E{fill:rgb(0%,80%,70.196078%)}.F{fill:rgb(23.921569%,60.392157%,88.627451%)}.G{fill:rgb(90.196078%,90.588235%,90.980392%)}.H{fill:rgb(81.960784%,82.745098%,83.137255%)}]]></style><path d="M133.852 57.902v40.051a2.56 2.56 0 0 1-2.559 2.559h-23.02v-16.52l1.254.918c.984.719 2.219 1.016 3.422.824s2.285-.855 2.996-1.848v6.395h10.23v-10.23h-9.512a4.6 4.6 0 0 0-1.789-2.555l-30-21.176 23.398-17.187zm0 0" fill="rgb(35.294118%,66.666667%,90.588235%)"/><path d="M65.18 56.32l-30 21.176a4.6 4.6 0 0 0-1.789 2.555h-6.957v20.461h-7.672a2.56 2.56 0 0 1-2.559-2.559V57.902l25.578-18.77zm0 0" class="E"/><path d="M44.336 41L16.203 61.664v-3.762l25.578-18.77zm0 0" fill="rgb(0%,70.196078%,61.568627%)"/><path d="M49.453 62.148c0 4.238-3.437 7.672-7.672 7.672s-7.676-3.434-7.676-7.672a7.68 7.68 0 0 1 7.676-7.672 7.68 7.68 0 0 1 7.672 7.672zm0 0" class="B"/><path d="M34.004 83.762a4.66 4.66 0 0 0 3.836 2.02c.965-.004 1.902-.305 2.688-.871l1.254-.918v16.52H26.434V80.051h6.957c-.324 1.27-.102 2.613.613 3.711zm0 0" class="C"/><path d="M72.902 50.871L65.18 56.32 41.781 39.133 7.277 64.449a4.57 4.57 0 0 1-2.684.871c-1.535 0-2.969-.754-3.836-2.02a4.59 4.59 0 0 1 1.176-6.266l39.848-28.133zm0 0" class="F"/><g class="D"><path d="M26.434 80.051h5.117v20.461h-5.117zm0 0"/><path d="M26.434 80.051h15.348v2.559H26.434zm0 0"/></g><path d="M100.602 78.363l7.672 5.629v16.52h-7.672zm0 0" class="C"/><path d="M126.176 80.051v10.23h-10.23v-6.395c.051-.027.086-.074.105-.125a4.58 4.58 0 0 0 .613-3.711zm0 0" class="G"/><path d="M115.945 62.148a7.67 7.67 0 0 1-7.672 7.672c-4.234 0-7.672-3.434-7.672-7.672a7.68 7.68 0 0 1 7.672-7.672c4.238 0 7.672 3.438 7.672 7.672zm0 0" class="B"/><path d="M150.063 60.77c0 1.723-.973 3.301-2.512 4.078a4.58 4.58 0 0 1-4.777-.398l-34.5-25.316L84.875 56.32l-7.727-5.449 31.125-21.969 39.848 28.133c1.211.855 1.934 2.25 1.941 3.734zm0 0" fill="rgb(0%,60%,52.54902%)"/><path d="M110.832 41L82.699 61.664v-3.762l25.574-18.77zm0 0" class="F"/><path d="M115.945 80.051h5.117v10.23h-5.117zm0 0" class="H"/><path d="M49.453 78.363v22.148h-7.672v-16.52zm0 0" class="E"/><path d="M100.602 78.363v40.051a2.56 2.56 0 0 1-2.559 2.559H52.008c-1.41 0-2.555-1.145-2.555-2.559V78.363l25.574-18.77zm0 0" fill="rgb(100%,76.862745%,46.666667%)"/><path d="M77.586 61.457L49.453 82.125v-3.762l25.574-18.77zm0 0" fill="rgb(100%,71.372549%,33.333333%)"/><path d="M82.699 100.512h10.23v10.23h-10.23zm0 0" class="G"/><path d="M82.699 82.609a7.67 7.67 0 1 1-15.344 0 7.67 7.67 0 1 1 15.344 0zm0 0" class="B"/><path d="M59.684 100.512h15.344v20.461H59.684zm0 0" class="C"/><g class="D"><path d="M59.684 100.512h5.113v20.461h-5.113zm0 0"/><path d="M59.684 100.512h15.344v2.559H59.684zm0 0"/></g><path d="M82.699 100.512h5.117v10.23h-5.117zm0 0" class="H"/><path d="M92.93 113.301H82.7a2.56 2.56 0 0 1-2.559-2.559v-10.23a2.56 2.56 0 0 1 2.559-2.559h10.23a2.56 2.56 0 0 1 2.559 2.559v10.23a2.56 2.56 0 0 1-2.559 2.559zm-7.672-5.117h5.113v-5.113h-5.113zm40.918-15.344h-10.23a2.56 2.56 0 0 1-2.555-2.559v-3.836a2.56 2.56 0 0 1 2.555-2.559 2.56 2.56 0 0 1 2.559 2.559v1.281h5.117v-5.117h-4.402a2.56 2.56 0 0 1-2.555-2.559c0-1.414 1.145-2.555 2.555-2.555h6.957a2.56 2.56 0 0 1 2.559 2.555v10.23a2.56 2.56 0 0 1-2.559 2.559zm0 0" class="D"/><path d="M108.273 83.992l-7.672-5.629-25.574-18.77-33.246 24.398-1.254.918c-.785.566-1.723.867-2.687.871-1.426.016-2.773-.637-3.648-1.758a4.57 4.57 0 0 1-.801-3.973 4.6 4.6 0 0 1 1.789-2.555l39.848-28.133 2.121 1.508 7.727 5.449 30 21.176a4.6 4.6 0 0 1 1.789 2.555 4.58 4.58 0 0 1-.613 3.711c-.02.051-.055.098-.105.125-.711.992-1.793 1.652-2.996 1.848s-2.437-.105-3.422-.824zm0 0" fill="rgb(100%,38.431373%,26.27451%)"/></svg>