<svg xmlns="http://www.w3.org/2000/svg" viewBox="0 0 318.543 318.543"  xmlns:v="https://vecta.io/nano"><path d="M82.778 120.197S46.626 0 157.942 0s77.66 120.197 77.66 120.197H82.778z" fill="#7f5732"/><path d="M221.511 143.758s24.905 26.13 8.566 67.161c-8.566 21.504 1.22 27.743 1.22 27.743s-21.651 4.075-19.194-20.448c.731-7.296-.017-9.072-7.071-16.974s-14.046-15.53-10.55-33.802l27.029-23.68z" fill="#6b4627"/><path d="M295.389 253.096c-10.522-37.754-63.361-33.566-86.164-44.408s-19.245-47.219-22.134-53.548h-55.638c-2.889 6.329.674 42.711-22.134 53.548-22.803 10.842-75.642 6.655-86.164 44.408-5.806 20.824-5.525 27.187-7.133 50.26 0 0 72.5 15.187 141.611 15.187s144.888-15.187 144.888-15.187c-1.602-23.073-1.326-29.435-7.132-50.26z" fill="#e8c59e"/><path d="M179.761 217.001c22.803 10.842 75.642 6.655 86.164 44.408 5.531 19.83 5.542 26.552 6.913 47.073 18.155-2.816 29.682-5.126 29.682-5.126-1.602-23.067-1.326-29.435-7.133-50.26-10.522-37.754-63.361-33.566-86.164-44.408s-19.245-47.219-22.134-53.548h-29.458c.002 0-.678 51.024 22.13 61.861z" fill="#ddb58e"/><path d="M61.661 311.056c26.675 3.76 61.737 7.487 95.972 7.487 35.326 0 72.388-3.968 100.187-7.846 13.383-11.792 33.156-14.361 44.201-14.81-1.124-17.283-1.506-24.405-6.632-42.79-9.724-34.887-55.582-33.96-80.482-42.171 3.058 17.874-48.877 95.14-55.363 95.14s-58.359-77.829-55.335-95.331c-24.764 8.42-71.253 7.211-81.049 42.363-5.12 18.374-5.508 25.495-6.632 42.767 11.038.392 31.537 2.893 45.133 15.191z" fill="#76c4bb"/><path d="M295.389 253.096c-9.724-34.887-55.582-33.96-80.482-42.171.545 3.181-.658 8.251-3.035 14.434 22.662 4.744 47.236 11.601 54.053 36.056 4.89 17.536 5.463 24.821 6.481 40.452 10.747-4.407 22.168-5.677 29.615-5.98-1.124-17.29-1.506-24.411-6.632-42.791z" fill="#56beb7"/><path d="M123.971 192.736c9.229 7.959 20.054 15.85 35.241 18.132 15.237-2.288 26.023-10.342 35.269-18.334-7.689-14.973-5.311-32.83-7.391-37.4h-55.638c-2.085 4.576.242 22.624-7.481 37.602z" fill="#cca281"/><ellipse transform="matrix(-.177 .9842 -.9842 -.177 380.1026 -81.5687)" cx="224.155" cy="118.137" rx="21.386" ry="11.629" fill="#ddb58e"/><g fill="#e8c59e"><ellipse transform="matrix(-.9842 .177 -.177 -.9842 207.8558 217.7436)" cx="94.216" cy="118.143" rx="11.629" ry="21.386"/><path d="M159.735 56.161s-65.874-7.487-66.683 11.927c-.793 19.02.124 21.712-.028 26.181-1.551 44.156 7.464 104.645 66.171 113.48 62.979-9.476 68.808-77.969 65.727-122.456-1.533-22.151-65.187-29.132-65.187-29.132z"/></g><g fill="#ddb58e"><path d="M159.195 207.749c94.331-14.192 60.45-160.806 60.45-160.806h-14.141c3.873 61.242 9.229 93.774-13.006 129.24-17.615 28.104-33.303 31.566-33.303 31.566z"/><path d="M91.709 96.989s69.072 15.204 106.157-27.429c0 0 10.23 24.523 27.625 27.552V60.905H91.709v36.084z"/></g><path d="M228.076 52.266c-8.538-26.355-68.869-31.925-68.881-31.925h0c-.011 0-60.343 5.57-68.881 31.925-8.538 26.361 1.394 44.723 1.394 44.723 20.234 2.383 88.452 0 107.016-35.045 6.683 24.95 26.765 35.168 26.765 35.168s11.125-18.485 2.587-44.846z" fill="#7f5732"/><path d="M231.994 205.602h-23.241c3.586 4.558 3.923 6.885 3.35 12.613-2.456 24.528 19.194 20.448 19.194 20.448s-9.786-6.239-1.22-27.743a82.99 82.99 0 0 0 1.917-5.318z" fill="#6b4627"/></svg>