<svg xmlns="http://www.w3.org/2000/svg" width="200" height="200" viewBox="0 0 150 150"  xmlns:v="https://vecta.io/nano"><style><![CDATA[.B{fill:rgb(86.666667%,70.980392%,55.686275%)}.C{fill:rgb(49.803922%,34.117647%,19.607843%)}.D{fill:rgb(41.960784%,27.45098%,15.294118%)}.E{fill:rgb(90.980392%,77.254902%,61.960784%)}]]></style><path d="M38.98 56.602S21.957 0 74.375 0s36.57 56.602 36.57 56.602zm0 0" class="C"/><path d="M104.309 67.695S116.035 80 108.344 99.32c-4.035 10.125.574 13.063.574 13.063s-10.195 1.922-9.039-9.629c.344-3.434-.008-4.27-3.332-7.992s-6.613-7.312-4.965-15.918zm0 0" class="D"/><path d="M139.098 119.18c-4.957-17.777-29.836-15.805-40.574-20.91s-9.062-22.234-10.422-25.215H61.902c-1.363 2.98.316 20.113-10.426 25.215s-35.617 3.133-40.574 20.91c-2.734 9.809-2.602 12.805-3.359 23.668 0 0 34.141 7.152 66.684 7.152s68.23-7.152 68.23-7.152c-.758-10.863-.625-13.859-3.359-23.668zm0 0" class="E"/><path d="M84.648 102.184c10.738 5.105 35.621 3.133 40.574 20.914 2.605 9.336 2.609 12.5 3.254 22.164 8.551-1.324 13.977-2.414 13.977-2.414-.754-10.859-.621-13.859-3.355-23.668-4.957-17.777-29.84-15.805-40.574-20.91s-9.062-22.234-10.426-25.215H74.227s-.316 24.027 10.422 29.129zm0 0" class="B"/><path d="M29.035 146.473C41.598 148.246 58.105 150 74.227 150c16.637 0 34.09-1.867 47.18-3.695 6.301-5.551 15.613-6.762 20.813-6.973-.527-8.141-.707-11.492-3.121-20.148-4.578-16.43-26.176-15.992-37.898-19.859 1.438 8.418-23.016 44.801-26.07 44.801s-27.48-36.648-26.059-44.891c-11.66 3.965-33.551 3.395-38.164 19.949-2.41 8.652-2.594 12.004-3.125 20.137 5.199.184 14.852 1.363 21.254 7.152zm0 0" fill="rgb(46.27451%,76.862745%,73.333333%)"/><path d="M139.098 119.18c-4.578-16.426-26.176-15.988-37.898-19.855.254 1.496-.312 3.883-1.43 6.797 10.672 2.234 22.242 5.461 25.453 16.977 2.301 8.258 2.574 11.688 3.051 19.051 5.063-2.078 10.441-2.676 13.945-2.816-.527-8.141-.707-11.496-3.121-20.152zm0 0" fill="rgb(33.72549%,74.509804%,71.764706%)"/><path d="M58.379 90.758c4.344 3.75 9.441 7.465 16.594 8.539 7.176-1.078 12.254-4.871 16.605-8.633-3.617-7.051-2.5-15.461-3.48-17.613H61.898c-.98 2.156.117 10.656-3.52 17.707zm0 0" fill="rgb(80%,63.529412%,50.588235%)"/><path d="M103.773 65.539c2.977.535 6.188-3.469 7.172-8.941s-.633-10.344-3.609-10.879-6.187 3.469-7.172 8.941.633 10.344 3.609 10.879zm0 0" class="B"/><g class="E"><path d="M38.977 56.602c.984 5.477 4.195 9.477 7.172 8.941s4.59-5.406 3.605-10.879-4.195-9.477-7.172-8.941-4.59 5.406-3.605 10.879zm0 0"/><path d="M75.219 26.445s-31.02-3.523-31.402 5.617c-.371 8.957.059 10.223-.012 12.328-.73 20.793 3.516 49.277 31.16 53.438 29.656-4.461 32.402-36.715 30.949-57.664-.723-10.43-30.695-13.719-30.695-13.719zm0 0"/></g><g class="B"><path d="M74.965 97.828c44.418-6.684 28.465-75.723 28.465-75.723h-6.66c1.824 28.84 4.348 44.156-6.125 60.859-8.293 13.234-15.68 14.863-15.68 14.863zm0 0"/><path d="M43.184 45.672s32.527 7.16 49.992-12.918c0 0 4.816 11.551 13.008 12.977V28.68h-63zm0 0"/></g><path d="M107.398 24.613c-4.02-12.41-32.43-15.035-32.434-15.035s-28.418 2.625-32.437 15.035.656 21.059.656 21.059c9.527 1.121 41.652 0 50.395-16.504 3.148 11.75 12.602 16.563 12.602 16.563s5.242-8.707 1.219-21.117zm0 0" class="C"/><path d="M109.246 96.816H98.301c1.688 2.148 1.848 3.242 1.578 5.941-1.156 11.547 9.039 9.629 9.039 9.629s-4.609-2.941-.574-13.066c.328-.824.629-1.66.902-2.504zm0 0" class="D"/></svg>